<?xml version="1.0" encoding="UTF-8" standalone="no"?>
<svg width="178px" height="40px" viewBox="0 0 178 40" version="1.1" xmlns="http://www.w3.org/2000/svg" xmlns:xlink="http://www.w3.org/1999/xlink">
    <!-- Generator: Sketch 41 (35326) - http://www.bohemiancoding.com/sketch -->
    <title>logo</title>
    <desc>Created with Sketch.</desc>
    <defs>
        <path d="M4.31146044,7.4739375 C3.00948511,5.32783873 0.219366197,0.90125 0.219366197,0.90125 L12.3384085,0.14875 L18.9895915,5.493125 C18.9895915,5.493125 14.2568921,6.58217 10.2901892,7.4739375 L4.31146044,7.4739375 L4.31146044,7.4739375 Z" id="path-1"></path>
        <path d="M3.97100075,6.8815625 C2.5057273,4.42424684 0.615478873,1.306875 0.615478873,1.306875 L13.9009225,0.165625 L21.3123662,6.23375 C21.3123662,6.23375 20.1876535,6.49750001 18.5411149,6.8815625 L3.97100075,6.8815625 L3.97100075,6.8815625 Z" id="path-3"></path>
        <polygon id="path-5" points="0.301471831 2.320625 1.70290845 7.638125 9.33998592 4.800625 6.76274648 0.021875"></polygon>
        <polygon id="path-7" points="0.296457746 2.675 2.01252817 8.714375 10.7802817 5.28875 7.97928873 0.06125"></polygon>
        <polygon id="path-9" points="0 39.375 177.664683 39.375 177.664683 0.314375 0 0.314375"></polygon>
        <polygon id="path-11" points="0.356 2.51375 4.12533803 5.638125 14.5370845 5.175625 9.02848592 0.20125"></polygon>
        <polygon id="path-13" points="0.216859155 3.725 4.6549507 8.238125 16.9814507 7.62875 10.454993 0.57375"></polygon>
    </defs>
    <g id="Page-1" stroke="none" stroke-width="1" fill="none" fill-rule="evenodd">
        <g id="Index" transform="translate(-73.000000, -36.000000)">
            <g id="Header">
                <g id="logo" transform="translate(73.000000, 36.000000)">
                    <g id="Group-9" transform="translate(0.000000, 2.185375)">
                        <path d="M28.0395754,3.2145625 C30.7446739,3.2145625 35.6741458,5.3089375 39.3908359,13.1645625 L21.6654204,19.7289375 C20.9972937,16.9758125 20.6851669,14.3289375 20.6851669,12.2776875 C20.6851669,4.9064375 25.3307162,3.2145625 28.0395754,3.2145625 L28.0395754,3.2145625 Z M49.0492162,22.4970625 L42.2588923,23.6414375 C42.2588923,29.4826875 41.1282162,34.7595625 34.8248852,34.7595625 C28.7829134,34.7595625 24.9126669,29.3551875 22.7735331,23.4345625 L48.3591528,13.8495625 L48.3591528,12.8301875 C45.5569063,6.9101875 39.7136176,1.0783125 31.4710894,1.0783125 C21.0073218,1.0783125 13.614681,8.0876875 13.614681,19.7739375 C13.614681,33.1083125 24.279012,37.4995625 31.4316035,37.4995625 C39.3106106,37.4995625 47.1877373,32.3026875 49.4089768,23.3995625 L49.0492162,22.4970625 Z" id="Fill-1" fill="#21445A"></path>
                        <path d="M24.6894148,8.0733125 L29.4527951,29.2320625 C26.9883725,29.8764375 22.2206049,30.3601875 20.56345,30.3601875 C14.7853444,30.3601875 9.93672465,28.6295625 9.93672465,26.0901875 C9.93672465,23.5514375 11.1501331,20.1289375 14.4619359,17.9114375 L15.4722739,12.4720625 C6.74651338,17.8708125 0.362957042,24.5183125 0.362957042,29.5558125 C0.362957042,32.1739375 4.52339366,34.3489375 14.5835275,34.3489375 C24.644288,34.3489375 32.84545,32.2139375 39.5925275,29.1108125 L27.9573444,8.7651875 C31.3111401,7.3558125 38.0168514,6.3483125 40.7651965,6.3483125 C47.9566472,6.3483125 52.7632739,9.5720625 52.7632739,12.8351875 C52.7632739,16.1551875 45.1750838,22.0133125 42.2593937,23.9551875 L45.6570627,25.2283125 L49.001457,23.9358125 C53.0083373,21.3820625 62.6203373,14.8326875 62.6203373,9.2145625 C62.6203373,5.3701875 56.56395,3.3258125 49.1825908,3.3258125 C42.3640627,3.3258125 31.9278725,5.6358125 24.6894148,8.0733125" id="Fill-3" fill="#21445A"></path>
                        <path d="M24.3267711,6.8565625 L29.0914049,28.0165625 C26.6263556,28.6615625 21.858588,29.1446875 20.2020599,29.1446875 C14.4239542,29.1446875 9.57596127,27.4121875 9.57596127,24.8721875 C9.57596127,22.3359375 10.788743,18.9115625 14.1024261,16.6953125 L15.1108838,11.2565625 C6.38386972,16.6546875 0.000313380282,23.3015625 0.000313380282,28.3378125 C0.000313380282,30.9565625 4.16263028,33.1315625 14.2221373,33.1315625 C24.2816444,33.1315625 32.4828063,30.9971875 39.2317641,27.8953125 L27.5959542,7.5490625 C30.9484965,6.1396875 37.6554613,5.1328125 40.4031796,5.1328125 C47.5946303,5.1328125 52.4025106,8.3553125 52.4025106,11.6196875 C52.4025106,14.9378125 44.8130669,20.7971875 41.8986303,22.7378125 L45.2956725,24.0103125 L48.6406937,22.7178125 C52.6463204,20.1659375 62.2564401,13.6165625 62.2564401,7.9971875 C62.2564401,4.1540625 56.2013063,2.1103125 48.8205739,2.1103125 C42.0026725,2.1103125 31.5671092,4.4190625 24.3267711,6.8565625" id="Fill-5" fill="#DEEDF9"></path>
                        <path d="M22.181119,22.618 L48.3615345,12.826125 C45.7360345,6.623 39.756112,0.17675 31.1112035,0.17675 C20.6455556,0.17675 13.252288,7.186125 13.252288,18.8705 C13.252288,32.2055 23.9191261,36.59675 31.0698373,36.59675 C38.9488444,36.59675 46.8259711,31.401125 49.0490908,22.497375 L41.8983796,22.738 C41.8983796,28.57925 40.76645,33.857375 34.463119,33.857375 C24.3622458,33.857375 20.3234007,18.74925 20.3234007,11.376125 C20.3234007,4.003 24.9695768,2.311125 27.6765556,2.311125 C30.3816542,2.311125 35.3130063,4.40675 39.0290697,12.262375 L20.9695908,18.95175 L22.181119,22.618 Z" id="Fill-7" fill="#5381C1"></path>
                    </g>
                    <g id="Group-12" transform="translate(13.788732, 29.060375)">
                        <mask id="mask-2" fill="white">
                            <use xlink:href="#path-1"></use>
                        </mask>
                        <g id="Clip-11"></g>
                        <path d="M10.9006824,-18.8016875 L15.6640627,2.3570625 C13.1996401,3.0014375 8.43187254,3.4851875 6.77471761,3.4851875 C0.996611972,3.4851875 -3.85200775,1.7545625 -3.85200775,-0.7848125 C-3.85200775,-3.3235625 -2.6385993,-6.7460625 0.673203521,-8.9635625 L1.68354155,-14.4029375 C-7.04221901,-9.0041875 -13.4257754,-2.3566875 -13.4257754,2.6808125 C-13.4257754,5.2989375 -9.26533873,7.4739375 0.79479507,7.4739375 C10.8555556,7.4739375 19.0567176,5.3389375 25.8037951,2.2358125 L14.168612,-18.1098125 C17.5224077,-19.5191875 24.228119,-20.5266875 26.9764641,-20.5266875 C34.1679148,-20.5266875 38.9745415,-17.3029375 38.9745415,-14.0398125 C38.9745415,-10.7198125 31.3863514,-4.8616875 28.4706613,-2.9198125 L31.8683303,-1.6466875 L35.2127246,-2.9391875 C39.2196049,-5.4929375 48.8316049,-12.0423125 48.8316049,-17.6604375 C48.8316049,-21.5048125 42.7752176,-23.5491875 35.3938585,-23.5491875 C28.5753303,-23.5491875 18.1391401,-21.2391875 10.9006824,-18.8016875" id="Fill-10" fill="#21445A" mask="url(#mask-2)"></path>
                    </g>
                    <g id="Group-15" transform="translate(12.535211, 28.435375)">
                        <mask id="mask-4" fill="white">
                            <use xlink:href="#path-3"></use>
                        </mask>
                        <g id="Clip-14"></g>
                        <path d="M11.7915599,-19.3934375 L16.5561937,1.7665625 C14.0911444,2.4115625 9.32337676,2.8946875 7.66684859,2.8946875 C1.88874296,2.8946875 -2.95925,1.1621875 -2.95925,-1.3778125 C-2.95925,-3.9140625 -1.74646831,-7.3384375 1.56721479,-9.5546875 L2.57567254,-14.9934375 C-6.15134155,-9.5953125 -12.5348979,-2.9484375 -12.5348979,2.0878125 C-12.5348979,4.7065625 -8.37258099,6.8815625 1.68692606,6.8815625 C11.7464331,6.8815625 19.9475951,4.7471875 26.6965528,1.6453125 L15.060743,-18.7009375 C18.4132852,-20.1103125 25.12025,-21.1171875 27.8679683,-21.1171875 C35.059419,-21.1171875 39.8672993,-17.8946875 39.8672993,-14.6303125 C39.8672993,-11.3121875 32.2778556,-5.4528125 29.363419,-3.5121875 L32.7604613,-2.2396875 L36.1054824,-3.5321875 C40.1111092,-6.0840625 49.7212289,-12.6334375 49.7212289,-18.2528125 C49.7212289,-22.0959375 43.6660951,-24.1396875 36.2853627,-24.1396875 C29.4674613,-24.1396875 19.0318979,-21.8309375 11.7915599,-19.3934375" id="Fill-13" fill="#DEEDF9" mask="url(#mask-4)"></path>
                    </g>
                    <g id="Group-18" transform="translate(25.697183, 16.560375)">
                        <mask id="mask-6" fill="white">
                            <use xlink:href="#path-5"></use>
                        </mask>
                        <g id="Clip-17"></g>
                        <path d="M2.34239225,-11.16225 C5.04749085,-11.16225 9.97696268,-9.067875 13.6936528,-1.21225 L-4.03176268,5.354 C-4.69988944,2.598375 -5.0120162,-0.049125 -5.0120162,-2.09725 C-5.0120162,-9.46975 -0.366466901,-11.16225 2.34239225,-11.16225 L2.34239225,-11.16225 Z M23.3520331,8.1215 L16.5617092,9.26275 C16.5617092,15.104 15.4310331,20.3815 9.12770211,20.3815 C3.08573028,20.3815 -0.784516197,14.977125 -2.92365,9.0565 L22.6619697,-0.527875 L22.6619697,-1.5485 C19.8597232,-7.466625 14.0164345,-13.297875 5.77390634,-13.297875 C-4.68986127,-13.297875 -12.0825021,-6.287875 -12.0825021,5.397125 C-12.0825021,18.7315 -1.41817113,23.123375 5.73442042,23.123375 C13.6134275,23.123375 21.4905542,17.925875 23.7117937,9.020875 L23.3520331,8.1215 Z" id="Fill-16" fill="#21445A" mask="url(#mask-6)"></path>
                    </g>
                    <g id="Group-21" transform="translate(25.070423, 15.935375)">
                        <mask id="mask-8" fill="white">
                            <use xlink:href="#path-7"></use>
                        </mask>
                        <g id="Clip-20"></g>
                        <path d="M-2.88930352,8.864625 L23.291112,-0.926 C20.665612,-7.129125 14.6856894,-13.576 6.04078099,-13.576 C-4.4248669,-13.576 -11.8181345,-6.56475 -11.8181345,5.119 C-11.8181345,18.453375 -1.15129648,22.845875 5.99941479,22.845875 C13.8784218,22.845875 21.7555486,17.648375 23.9786683,8.744625 L16.827957,8.9865 C16.827957,14.829 15.6960275,20.1065 9.39269648,20.1065 C-0.708176761,20.1065 -4.74702183,4.997125 -4.74702183,-2.375375 C-4.74702183,-9.7485 -0.100845775,-11.440375 2.6061331,-11.440375 C5.31123169,-11.440375 10.2425838,-9.346625 13.9586472,-1.4885 L-4.10083169,5.198375 L-2.88930352,8.864625 Z" id="Fill-19" fill="#5381C1" mask="url(#mask-8)"></path>
                    </g>
                    <g id="Group-45" transform="translate(0.000000, 0.310375)">
                        <path d="M66.8873859,0.765875 C65.6413859,0.765875 64.6266606,1.7765 64.6266606,3.018375 C64.6266606,4.2615 65.6413859,5.272125 66.8873859,5.272125 C68.1321324,5.272125 69.146231,4.2615 69.146231,3.018375 C69.146231,1.7765 68.1321324,0.765875 66.8873859,0.765875 Z M66.8873859,5.722125 C65.3919352,5.722125 64.1747662,4.509 64.1747662,3.018375 C64.1747662,1.52775 65.3919352,0.314625 66.8873859,0.314625 C68.3815831,0.314625 69.5974986,1.52775 69.5974986,3.018375 C69.5974986,4.509 68.3815831,5.722125 66.8873859,5.722125 Z" id="Fill-22" fill="#0065AC"></path>
                        <path d="M65.8566782,1.3441875 L67.1427908,1.3441875 C67.6648824,1.3441875 67.9506852,1.8391875 67.9506852,2.2704375 C67.9506852,2.7929375 67.5909246,3.2154375 67.1565796,3.2154375 L66.3273754,3.2154375 L66.3624739,2.7373125 L66.7454246,2.7373125 C67.1315092,2.7373125 67.2737838,2.5710625 67.2737838,2.3241875 C67.2737838,2.0766875 67.1321359,1.8729375 66.8620021,1.8729375 L66.5310725,1.8729375 L66.5310725,4.5548125 L65.8604387,4.5548125 L65.8566782,1.3441875 Z" id="Fill-24" fill="#0065AC"></path>
                        <path d="M67.3902359,2.9981875 C67.7086303,3.1394375 68.033919,3.4094375 68.033919,4.5581875 L67.3551373,4.5581875 C67.3551373,4.1231875 67.3112641,3.2844375 66.874412,3.1938125 L67.3902359,2.9981875 Z" id="Fill-26" fill="#0065AC"></path>
                        <path d="M64.4342451,25.4420625 C64.6003366,23.5445625 65.3794,22.5101875 66.6824352,22.5101875 C68.1615901,22.5101875 69.0020761,23.7864375 69.0020761,25.4420625 L64.4342451,25.4420625 Z M71.6877451,25.5708125 C71.6877451,22.0733125 68.8015127,20.7439375 66.7369634,20.7439375 C64.6724141,20.7439375 61.3662521,21.9089375 61.3662521,26.2989375 C61.3662521,30.6895625 63.9967662,32.0183125 66.8648225,32.0183125 C68.033731,32.0183125 69.9885972,31.5458125 70.939393,31.0901875 L70.939393,29.1964375 C70.6097169,29.4320625 68.892393,30.1064375 67.5041183,30.1064375 C65.2527944,30.1064375 64.5539563,28.9883125 64.4229634,27.0476875 L71.6877451,27.0476875 L71.6877451,25.5708125 Z" id="Fill-28" fill="#0065AC"></path>
                        <mask id="mask-10" fill="white">
                            <use xlink:href="#path-9"></use>
                        </mask>
                        <g id="Clip-31"></g>
                        <polygon id="Fill-30" fill="#0065AC" mask="url(#mask-10)" points="73.5158803 27.414375 82.6722254 27.414375 82.6722254 25.1325 73.5158803 25.1325"></polygon>
                        <path d="M91.1752979,23.25825 L91.1752979,21.491375 C90.3254106,21.04825 89.2555303,20.75325 88.1843965,20.75325 C85.6196923,20.75325 84.1605937,22.37325 84.1605937,24.048875 C84.1605937,25.723875 85.1383401,26.682 86.8381148,27.197 C88.5347556,27.712 89.1809458,28.15325 89.1809458,28.927625 C89.1809458,29.701375 88.0176782,30.271375 86.9484246,30.271375 C85.8772908,30.271375 84.2897063,29.607625 83.9951289,29.40575 L83.9951289,31.448875 C84.6952204,31.7445 86.3755655,32.05575 87.2430021,32.05575 C89.311312,32.05575 91.7644528,31.26575 91.7644528,28.32075 C91.7644528,26.036375 89.8647415,25.373875 88.5723613,25.006375 C87.279981,24.63825 86.5046782,24.287625 86.5046782,23.680125 C86.5046782,23.0745 87.3545655,22.485125 88.4802275,22.485125 C89.6058894,22.485125 90.8249387,22.982 91.1752979,23.25825" id="Fill-32" fill="#0065AC" mask="url(#mask-10)"></path>
                        <path d="M168.456004,23.25825 L168.456004,21.491375 C167.60737,21.04825 166.536863,20.75325 165.464475,20.75325 C162.900398,20.75325 161.441926,22.37325 161.441926,24.048875 C161.441926,25.723875 162.420299,26.682 164.11882,27.197 C165.817342,27.712 166.462278,28.15325 166.462278,28.927625 C166.462278,29.701375 165.299011,30.271375 164.229757,30.271375 C163.157996,30.271375 161.570412,29.607625 161.277088,29.40575 L161.277088,31.448875 C161.97718,31.7445 163.658151,32.05575 164.523708,32.05575 C166.592018,32.05575 169.047039,31.26575 169.047039,28.32075 C169.047039,26.036375 167.145447,25.373875 165.853694,25.006375 C164.560687,24.63825 163.787264,24.287625 163.787264,23.680125 C163.787264,23.0745 164.635271,22.485125 165.760933,22.485125 C166.888475,22.485125 168.104391,22.982 168.456004,23.25825" id="Fill-33" fill="#0065AC" mask="url(#mask-10)"></path>
                        <path d="M98.5574718,30.136 C96.7605493,30.136 96.2434718,28.63475 96.2434718,26.260375 C96.2434718,24.222875 96.9404296,22.56475 98.6019718,22.56475 C100.264768,22.56475 100.936028,24.089125 100.936028,26.28225 C100.936028,28.47725 100.353768,30.136 98.5574718,30.136 M98.6019718,20.7285 C95.7057113,20.7285 93.1905211,22.60975 93.1905211,26.260375 C93.1905211,30.22475 95.4130141,32.061 98.6019718,32.061 C101.791556,32.061 104.013423,30.022875 104.013423,26.28225 C104.013423,22.544125 101.498859,20.7285 98.6019718,20.7285" id="Fill-34" fill="#0065AC" mask="url(#mask-10)"></path>
                        <path d="M142.595361,30.136 C140.798439,30.136 140.281988,28.63475 140.281988,26.260375 C140.281988,24.222875 140.977065,22.56475 142.639235,22.56475 C144.30203,22.56475 144.975798,24.089125 144.975798,26.28225 C144.975798,28.47725 144.391657,30.136 142.595361,30.136 M142.639235,20.7285 C139.742974,20.7285 137.227157,22.60975 137.227157,26.260375 C137.227157,30.22475 139.45153,32.061 142.639235,32.061 C145.828819,32.061 148.052565,30.022875 148.052565,26.28225 C148.052565,22.544125 145.536749,20.7285 142.639235,20.7285" id="Fill-35" fill="#0065AC" mask="url(#mask-10)"></path>
                        <polygon id="Fill-36" fill="#0065AC" mask="url(#mask-10)" points="106.306113 31.769375 109.382254 31.769375 109.382254 17.705625 106.306113 17.705625"></polygon>
                        <path d="M118.419827,20.938 L118.419827,28.69675 C117.994884,29.21425 117.280377,29.687375 116.462454,29.687375 C115.556785,29.687375 115.140616,29.182375 115.140616,28.3155 L115.140616,20.92925 L112.081398,20.92925 L112.081398,28.911125 C112.081398,30.15675 112.730722,31.999875 114.777722,31.999875 C116.543933,31.999875 117.649539,31.098 118.419827,30.17675 L118.419827,31.76925 L121.495968,31.76925 L121.495968,20.938 L118.419827,20.938 Z" id="Fill-37" fill="#0065AC" mask="url(#mask-10)"></path>
                        <path d="M156.909883,20.718875 C155.143672,20.718875 154.038066,21.62075 153.267151,22.542 L153.267151,20.9495 L150.19101,20.9495 L150.19101,31.778875 L153.267151,31.778875 L153.267151,24.022 C153.692721,23.5045 154.404721,23.031375 155.225151,23.031375 C156.128939,23.031375 156.545735,23.536375 156.545735,24.40325 L156.545735,31.790125 L159.606207,31.790125 L159.606207,23.807 C159.606207,22.562 158.954376,20.718875 156.909883,20.718875" id="Fill-38" fill="#0065AC" mask="url(#mask-10)"></path>
                        <path d="M130.133606,22.896625 L130.133606,21.2185 L127.363325,21.2185 L127.363325,17.69725 L125.46236,17.69725 L124.55105,21.2185 L123.017367,21.2185 L123.017367,22.896625 L124.285304,22.896625 L124.285304,28.406 C124.285304,30.789125 126.005761,31.891 127.543832,31.891 C128.28717,31.891 129.409698,31.672875 130.042726,31.49225 L130.042726,29.705375 C129.898571,29.75975 129.154606,29.957875 128.683909,29.957875 C127.760064,29.957875 127.363325,29.46975 127.363325,28.6585 L127.363325,22.896625 L130.133606,22.896625 Z" id="Fill-39" fill="#0065AC" mask="url(#mask-10)"></path>
                        <polygon id="Fill-40" fill="#0065AC" mask="url(#mask-10)" points="131.981986 31.769375 135.058754 31.769375 135.058754 20.938125 131.981986 20.938125"></polygon>
                        <path d="M133.518364,20.315125 C134.419019,20.315125 135.149195,19.587625 135.149195,18.692 C135.149195,17.793875 134.419019,17.06575 133.518364,17.06575 C132.619589,17.06575 131.89004,17.793875 131.89004,18.692 C131.89004,19.587625 132.619589,20.315125 133.518364,20.315125" id="Fill-41" fill="#0065AC" mask="url(#mask-10)"></path>
                        <path d="M174.950685,17.127875 C173.705311,17.127875 172.691213,18.13725 172.691213,19.381625 C172.691213,20.624125 173.705311,21.635375 174.950685,21.635375 C176.196685,21.635375 177.210783,20.624125 177.210783,19.381625 C177.210783,18.13725 176.196685,17.127875 174.950685,17.127875 M174.950685,22.086 C173.455861,22.086 172.239945,20.87225 172.239945,19.381625 C172.239945,17.890375 173.455861,16.67725 174.950685,16.67725 C176.446135,16.67725 177.664558,17.890375 177.664558,19.381625 C177.664558,20.87225 176.446135,22.086 174.950685,22.086" id="Fill-42" fill="#0065AC" mask="url(#mask-10)"></path>
                        <path d="M173.922985,17.70525 L175.205337,17.70525 C175.729936,17.70525 176.015112,18.20275 176.015112,18.633375 C176.015112,19.15525 175.657232,19.578375 175.219753,19.578375 L174.391802,19.578375 L174.427527,19.099 L174.810478,19.099 C175.194682,19.099 175.338837,18.934625 175.338837,18.685875 C175.338837,18.43775 175.197189,18.235875 174.927056,18.235875 L174.594873,18.235875 L174.594873,20.917125 L173.926746,20.917125 L173.922985,17.70525 Z" id="Fill-43" fill="#0065AC" mask="url(#mask-10)"></path>
                        <path d="M175.453785,19.36175 C175.772806,19.50175 176.098722,19.772375 176.098722,20.919875 L175.421194,20.919875 C175.421194,20.486125 175.376694,19.6455 174.939842,19.557375 L175.453785,19.36175 Z" id="Fill-44" fill="#0065AC" mask="url(#mask-10)"></path>
                    </g>
                    <g id="Group-48" transform="translate(30.711268, 4.060375)">
                        <mask id="mask-12" fill="white">
                            <use xlink:href="#path-11"></use>
                        </mask>
                        <g id="Clip-47"></g>
                        <path d="M-2.67169225,1.3395625 C0.033406338,1.3395625 4.96287817,3.4339375 8.67956831,11.2895625 L-9.04584718,17.8539375 C-9.71397394,15.1008125 -10.0261007,12.4539375 -10.0261007,10.4026875 C-10.0261007,3.0314375 -5.37992465,1.3395625 -2.67169225,1.3395625 L-2.67169225,1.3395625 Z M18.3385754,20.6220625 L11.5476246,21.7664375 C11.5476246,27.6076875 10.4182021,32.8845625 4.11361761,32.8845625 C-1.92772746,32.8845625 -5.7986007,27.4801875 -7.93773451,21.5595625 L17.6497655,11.9745625 L17.6497655,10.9551875 C14.8456387,5.0351875 9.00235,-0.7966875 0.761702113,-0.7966875 C-9.70394577,-0.7966875 -17.0965866,6.2126875 -17.0965866,17.8989375 C-17.0965866,31.2333125 -6.43037535,35.6245625 0.720335915,35.6245625 C8.59934296,35.6245625 16.4764697,30.4276875 18.6977092,21.5245625 L18.3385754,20.6220625 Z" id="Fill-46" fill="#21445A" mask="url(#mask-12)"></path>
                    </g>
                    <g id="Group-51" transform="translate(29.457746, 2.185375)">
                        <mask id="mask-14" fill="white">
                            <use xlink:href="#path-13"></use>
                        </mask>
                        <g id="Clip-50"></g>
                        <path d="M-7.2760007,22.618 L18.903788,12.826125 C16.278288,6.623 10.2983655,0.17675 1.65345704,0.17675 C-8.81219085,0.17675 -16.2054585,7.186125 -16.2054585,18.8705 C-16.2054585,32.2055 -5.53862042,36.59675 1.61334437,36.59675 C9.49109789,36.59675 17.3682246,31.401125 19.5913444,22.497375 L12.4406331,22.738 C12.4406331,28.57925 11.3087035,33.857375 5.00537254,33.857375 C-5.0955007,33.857375 -9.13434577,18.74925 -9.13434577,11.376125 C-9.13434577,4.003 -4.48816972,2.311125 -1.78119085,2.311125 C0.923907746,2.311125 5.85525986,4.40675 9.57132324,12.262375 L-8.48815563,18.95175 L-7.2760007,22.618 Z" id="Fill-49" fill="#5381C1" mask="url(#mask-14)"></path>
                    </g>
                </g>
            </g>
        </g>
    </g>
</svg>